<svg version="1.1" id="Layer_1" xmlns="http://www.w3.org/2000/svg" xmlns:xlink="http://www.w3.org/1999/xlink" x="0px" y="0px"
	 width="100%" viewBox="0 0 500 500" enable-background="new 0 0 500 500" xml:space="preserve">
<path fill="#FFFFFF" opacity="1.000000" stroke="none" 
	d="
M264.000000,501.000000 
	C177.333359,501.000000 91.166672,500.973969 5.000197,501.095886 
	C1.576060,501.100739 0.903036,500.423828 0.905301,497.000000 
	C1.013778,333.000092 1.013773,169.000122 0.905334,5.000243 
	C0.903071,1.576935 1.575804,0.903022 4.999880,0.905287 
	C168.999756,1.013774 332.999725,1.013761 496.999634,0.905353 
	C500.422668,0.903090 501.096985,1.575435 501.094727,4.999760 
	C500.986206,168.999634 500.986237,332.999603 501.094604,496.999512 
	C501.096893,500.422272 500.425568,501.101715 497.000275,501.096191 
	C419.500336,500.971008 342.000153,501.000000 264.000000,501.000000 
z"/>
<path fill="#0D0B0C" opacity="1.000000" stroke="none" 
	d="
M81.553894,237.105011 
	C84.190781,233.585007 86.725204,230.394287 89.569107,227.077545 
	C91.214539,225.936493 92.290901,224.640686 93.805077,223.358459 
	C102.813538,216.326523 108.490067,206.811996 115.703400,198.191437 
	C116.269440,197.641785 116.671822,197.460266 117.462540,197.474350 
	C118.971413,198.178009 119.647507,199.383591 120.964676,200.354446 
	C122.198601,201.653992 122.916077,202.975815 124.326370,204.111832 
	C126.275604,205.570694 127.994232,206.807495 130.791809,208.179825 
	C133.278214,209.817657 134.889435,210.998260 136.921509,212.160141 
	C138.006866,212.807846 138.759766,213.331116 139.405777,214.443665 
	C139.529419,215.002365 139.532242,215.234436 139.423309,215.795990 
	C138.909027,216.690598 138.400528,217.164413 137.758194,217.979492 
	C136.078064,222.805710 133.382019,226.973724 133.352234,232.340393 
	C133.910004,238.188995 132.224274,243.846176 134.868683,249.515350 
	C135.954269,257.625031 140.410172,263.499390 145.367035,269.064575 
	C147.667282,271.647095 150.002792,274.175385 151.702209,277.642761 
	C151.957932,280.193207 150.931198,281.957336 149.531891,283.954315 
	C144.562714,285.329346 141.679382,281.359039 137.489716,279.971375 
	C135.016815,278.411163 132.513306,277.676910 130.099731,276.038788 
	C129.119354,275.248840 128.493210,274.579834 127.506943,273.803284 
	C123.278854,271.322021 120.168205,267.739594 115.425751,266.085144 
	C114.893387,265.908112 114.686249,265.824738 114.197372,265.565430 
	C113.144539,264.632690 112.752747,263.579132 111.683914,262.642456 
	C109.597008,260.665253 107.410728,259.362000 105.156334,257.595093 
	C103.747391,256.118622 102.772377,254.669357 100.875938,253.747284 
	C98.167145,252.463409 96.748291,249.889114 93.788239,248.954529 
	C93.285744,248.703140 93.092094,248.588226 92.640808,248.256134 
	C90.746895,246.237839 88.887329,244.667679 86.881943,242.770340 
	C85.155342,241.165497 83.431046,240.080078 81.773758,238.400146 
	C81.541901,237.885086 81.496674,237.659683 81.553894,237.105011 
z"/>
<path fill="#0D0B0C" opacity="1.000000" stroke="none" 
	d="
M200.722443,275.776550 
	C203.656281,281.707886 206.144623,287.506317 209.012299,293.110565 
	C214.260437,303.366882 211.275818,314.319061 211.912628,324.952301 
	C212.070419,327.587158 209.394516,326.485992 208.009583,326.494446 
	C195.716949,326.569519 183.423477,326.512329 170.681183,326.440674 
	C168.089417,322.072998 172.014908,319.826050 173.844498,316.545593 
	C178.603394,314.959198 183.108215,317.867767 187.812653,315.881714 
	C192.224274,311.534821 192.670898,309.091248 189.944504,303.982544 
	C189.387299,303.410339 189.087128,303.067749 188.608093,302.433167 
	C187.776398,300.631866 186.433670,299.827271 184.904449,298.741211 
	C183.786682,297.566040 182.889618,296.648712 181.261719,296.239960 
	C180.333984,295.989410 179.741699,295.755920 178.923248,295.262634 
	C178.170776,294.700958 177.670502,294.327789 176.819092,293.902344 
	C176.342163,293.641724 176.156357,293.522888 175.742157,293.155579 
	C175.411057,292.702698 175.308365,292.498322 175.106155,291.959900 
	C174.966415,291.393707 174.926193,291.161591 174.854218,290.574158 
	C174.784805,289.005951 174.843674,287.802551 175.314606,286.288391 
	C177.157883,283.544678 180.145859,283.738464 182.752960,282.378906 
	C183.718842,282.029510 184.374893,281.851776 185.323456,281.514618 
	C185.834625,281.328644 186.038971,281.257660 186.550751,281.091309 
	C187.875687,280.715881 188.895020,280.441589 190.170959,279.929688 
	C190.852295,279.620087 191.233780,279.420288 191.885895,279.017761 
	C194.825974,277.486725 197.149094,275.286865 200.722443,275.776550 
z"/>
<path fill="#141213" opacity="1.000000" stroke="none" 
	d="
M404.046326,248.992798 
	C403.719727,241.105560 406.466980,237.042435 413.052521,235.209518 
	C420.664917,233.090790 429.247437,235.691971 432.134857,241.186691 
	C433.029175,242.888596 434.994293,245.781891 432.674072,246.578857 
	C430.571991,247.300934 426.798492,248.862457 424.928619,245.068039 
	C422.918793,240.989624 419.352386,241.464737 415.869171,242.103638 
	C414.160278,242.417099 412.841248,243.569977 412.790131,245.526611 
	C412.743866,247.297302 413.963043,248.292542 415.437103,248.754898 
	C419.073822,249.895691 422.811768,250.725571 426.418396,251.947815 
	C432.568909,254.032181 435.131927,257.356689 435.026581,262.655121 
	C434.915070,268.263947 431.573364,272.274750 425.598297,274.003693 
	C421.166931,275.285950 416.729645,275.311005 412.331848,273.943909 
	C408.364410,272.710571 405.087952,270.503510 403.591949,266.443512 
	C402.974945,264.769104 401.393188,261.892487 403.782990,261.441620 
	C406.108795,261.002838 409.554413,259.226868 411.618927,263.066162 
	C414.132690,267.740814 419.116058,269.237366 423.381958,266.993774 
	C424.731995,266.283752 425.944214,265.420807 426.050049,263.682770 
	C426.170959,261.697876 425.004547,260.511414 423.350525,259.948151 
	C420.059601,258.827423 416.674835,257.984039 413.374573,256.888306 
	C409.362061,255.556046 405.579712,253.857361 404.046326,248.992798 
z"/>
<path fill="#110F10" opacity="1.000000" stroke="none" 
	d="
M250.514282,259.439545 
	C254.323212,264.230408 257.896118,268.751038 261.725739,273.596558 
	C254.744308,274.762604 249.042160,274.657715 245.740845,267.379547 
	C244.281082,264.161285 241.647110,261.475677 239.111176,257.942108 
	C237.480820,262.377563 238.154465,266.298004 238.293274,270.058899 
	C238.417267,273.418274 237.312836,274.316772 234.131393,274.082336 
	C231.548264,273.892059 229.517731,274.372070 229.647308,270.364990 
	C229.991104,259.733704 229.945404,249.079147 229.666199,238.444046 
	C229.567902,234.699844 231.532639,234.991608 233.941025,235.050720 
	C236.216644,235.106598 238.630249,234.459885 238.268112,238.359558 
	C237.904312,242.276932 238.188110,246.254425 238.188110,251.042419 
	C241.966660,248.215195 243.612915,244.802643 245.754425,241.854019 
	C251.174103,234.391678 251.116852,234.350098 261.175812,235.560455 
	C257.401245,240.476822 254.069763,245.417557 250.107941,249.786713 
	C246.916992,253.305725 246.593643,256.100952 250.514282,259.439545 
z"/>
<path fill="#141213" opacity="1.000000" stroke="none" 
	d="
M382.239075,244.293488 
	C379.701904,247.989975 374.946655,250.998123 375.295227,254.593979 
	C375.635712,258.106415 379.798431,261.266815 382.333984,264.542480 
	C384.560913,267.419434 386.858154,270.242035 389.165344,273.140137 
	C381.323700,275.467682 378.677399,274.595886 374.270691,268.355652 
	C371.823242,264.889862 369.367676,261.429840 366.018250,256.699677 
	C366.018250,262.416870 365.777740,266.663757 366.093567,270.868866 
	C366.350800,274.294220 364.443298,274.295441 362.163605,273.989716 
	C360.221436,273.729248 357.276855,275.397430 357.331116,271.174377 
	C357.474335,260.032532 357.420502,248.887405 357.361115,237.744049 
	C357.338531,233.504807 360.460327,235.379623 362.362213,235.108795 
	C364.355286,234.824982 366.322601,234.657043 366.090759,237.950775 
	C365.791687,242.198807 366.017914,246.483826 366.017914,252.277374 
	C369.106171,247.995209 371.374176,244.887924 373.602692,241.752594 
	C378.501740,234.860077 378.493591,234.854294 388.593018,235.175720 
	C387.177399,238.680481 384.451233,241.104752 382.239075,244.293488 
z"/>
<path fill="#141213" opacity="1.000000" stroke="none" 
	d="
M331.416748,247.820038 
	C326.674957,242.502121 320.922180,241.224808 316.172089,244.300018 
	C311.433868,247.367538 309.504578,253.898193 311.738068,259.309082 
	C313.961456,264.695526 319.121643,267.467163 324.601654,266.049042 
	C326.002319,265.686584 327.415192,264.994812 328.568817,264.119904 
	C333.537018,260.352112 333.502655,260.306793 340.555481,261.306763 
	C337.008331,270.932587 328.330627,275.907501 318.209229,274.117828 
	C309.072235,272.502289 302.075073,264.100098 302.015656,254.672668 
	C301.956543,245.293625 308.928040,236.694214 317.966736,234.996872 
	C328.006439,233.111526 336.726685,237.980362 340.727234,248.028046 
	C337.635071,248.028046 334.689880,248.028046 331.416748,247.820038 
z"/>
<path fill="#504535" opacity="1.000000" stroke="none" 
	d="
M189.017181,316.120911 
	C186.363708,319.717987 182.969360,317.558594 179.909637,317.650299 
	C178.134491,317.703491 176.341156,317.149628 174.105194,316.929382 
	C172.845718,317.815643 171.997528,317.421173 170.848480,316.928040 
	C168.985275,315.844360 167.247406,315.755066 165.167572,315.697266 
	C162.734177,314.742188 161.747330,316.265259 160.331177,317.732391 
	C158.699112,318.264221 157.433823,318.200867 155.919250,317.311707 
	C159.094925,312.096313 159.073380,312.142334 153.625656,309.591949 
	C143.420578,304.814331 134.157120,298.537994 125.144806,291.330811 
	C124.281929,290.262482 124.411469,289.523193 125.357994,288.658203 
	C125.835571,288.475586 126.038727,288.442261 126.545883,288.442688 
	C127.231781,288.596527 127.604485,288.740143 128.228378,289.036438 
	C128.658890,289.251923 128.826828,289.343903 129.231949,289.591949 
	C129.622604,289.857483 129.776077,289.966919 130.420502,290.356323 
	C131.463715,290.843903 132.034637,290.976990 132.932785,291.118469 
	C137.372406,292.556213 140.944168,295.043976 145.118774,297.107971 
	C149.594315,299.006470 153.510132,301.286591 158.069489,303.035950 
	C163.073425,304.754395 167.495132,307.042297 172.750061,308.081604 
	C178.387573,310.746368 184.843475,310.822021 189.017181,316.120911 
z"/>
<path fill="#191718" opacity="1.000000" stroke="none" 
	d="
M284.661438,273.591583 
	C276.361389,274.137939 276.361359,274.137939 276.361359,266.385925 
	C276.361359,257.226318 276.550446,248.060913 276.268738,238.909988 
	C276.155701,235.239014 277.762268,234.921295 280.680267,234.979248 
	C283.406311,235.033356 285.237640,234.906723 285.132904,238.762375 
	C284.820953,250.245071 284.990173,261.740845 284.661438,273.591583 
z"/>
<path fill="#524D45" opacity="1.000000" stroke="none" 
	d="
M127.107025,288.410889 
	C126.237770,289.011719 125.319450,289.233765 125.038391,290.694336 
	C108.263832,278.103485 91.056175,265.780609 75.076660,251.387375 
	C74.705513,250.629852 74.780930,250.180298 75.454941,249.599854 
	C77.204758,248.999115 78.431839,249.538193 79.465172,250.412842 
	C94.914810,263.489807 111.438591,275.207214 127.107025,288.410889 
z"/>
<path fill="#524D45" opacity="1.000000" stroke="none" 
	d="
M120.787003,201.199463 
	C119.064247,201.150986 118.492073,200.155960 117.946838,198.837540 
	C117.707649,197.944290 117.325043,197.394211 117.270523,196.406342 
	C118.356232,194.899170 119.696190,192.951187 120.939995,195.358932 
	C125.107803,203.426895 132.793732,206.986633 140.495560,211.107574 
	C141.590652,211.602371 142.661331,211.328964 143.200836,212.590088 
	C142.626480,213.880768 141.552078,214.271118 140.474884,215.166260 
	C140.002121,215.424286 139.796997,215.496826 139.272171,215.503677 
	C138.406311,214.804169 137.860123,214.170349 137.159256,213.260818 
	C135.624847,211.102036 133.786011,209.921936 131.228210,209.227417 
	C130.939682,209.053925 131.007462,209.020905 130.989136,209.053848 
	C130.802933,208.955215 130.635025,208.823624 130.207581,208.879181 
	C128.086609,207.910294 126.225204,206.754288 124.171982,205.335587 
	C123.524605,203.439819 122.455444,202.278580 120.787003,201.199463 
z"/>
<path fill="#F0EFEF" opacity="1.000000" stroke="none" 
	d="
M153.166962,193.946777 
	C153.103119,194.432632 153.237640,194.575378 153.471497,194.826660 
	C153.772888,195.073975 153.973450,195.214188 154.193939,195.721207 
	C154.122635,196.572433 154.011963,197.052353 153.753967,197.876038 
	C153.187424,201.981552 153.021500,205.734894 153.893143,209.854401 
	C154.408127,212.638046 154.456360,215.045822 153.946899,217.841782 
	C153.674362,218.451126 153.530319,218.677078 153.045837,219.113922 
	C149.516342,218.755951 148.035568,216.234222 146.323517,213.468750 
	C146.123993,212.575409 146.104553,212.054947 146.204193,211.147858 
	C146.781052,209.026077 146.679413,207.200699 147.082733,205.052032 
	C147.861481,201.050705 147.845886,197.333984 148.710236,193.335999 
	C149.143402,191.930069 149.163696,190.289581 150.239120,190.179352 
	C151.840958,190.015198 151.805237,191.302628 151.235733,192.485703 
	C152.359161,192.069504 153.581314,191.464890 153.166962,193.946777 
z"/>
<path fill="#191718" opacity="1.000000" stroke="none" 
	d="
M165.175995,314.904358 
	C167.377838,314.637787 169.254166,314.273407 171.123611,315.951385 
	C172.583984,320.307251 169.395020,322.614471 167.325195,325.682892 
	C165.298798,326.927185 163.512344,326.196930 161.327087,326.253357 
	C160.360184,325.878754 160.298660,325.232483 160.203705,324.260132 
	C159.246307,323.622375 158.456482,323.272339 157.335159,322.953796 
	C155.508591,320.857574 156.669662,319.770233 158.586731,319.026520 
	C160.179153,318.408783 162.170349,318.573059 163.215408,316.344666 
	C163.617493,315.317719 164.021774,314.769958 165.175995,314.904358 
z"/>
<path fill="#524D45" opacity="1.000000" stroke="none" 
	d="
M191.172745,280.815216 
	C189.906509,281.408905 188.840317,281.783020 187.433243,282.186401 
	C186.673126,281.990021 186.852249,281.219727 186.185516,281.219391 
	C186.496445,281.392120 186.533112,281.649963 186.188782,282.263977 
	C185.597046,282.737335 185.112045,282.939575 184.360596,283.151672 
	C183.367401,282.494537 183.257553,281.681122 183.777710,280.420502 
	C188.393860,277.808960 193.004013,276.030487 196.870667,272.828156 
	C198.784286,271.243256 198.959427,271.454742 201.015167,275.621521 
	C197.848969,276.244720 195.835068,278.866730 192.718048,279.938416 
	C192.027237,280.160767 191.678909,280.336334 191.172745,280.815216 
z"/>
<path fill="#BABABA" opacity="1.000000" stroke="none" 
	d="
M149.660706,192.577026 
	C149.440155,196.755905 149.083176,200.656998 148.516724,204.914368 
	C148.091797,205.158478 147.876343,205.046295 147.470581,204.626251 
	C146.847458,202.712799 147.089035,201.191010 147.314072,200.744797 
	C147.029144,203.612305 146.638824,207.592606 144.956451,211.625214 
	C144.641998,212.126236 144.486053,212.307053 143.983185,212.576782 
	C142.847610,212.333923 142.058975,212.002136 141.056000,211.425552 
	C143.619507,210.813324 143.104843,208.256348 143.605118,206.615219 
	C144.690674,203.054199 145.331177,199.357498 146.223114,195.312500 
	C146.755447,194.562668 147.174622,194.180984 147.241852,193.342972 
	C146.994553,192.125610 147.437439,191.470993 148.512177,190.876968 
	C149.556595,191.036423 149.432343,191.718246 149.660706,192.577026 
z"/>
<path fill="#D3D2D3" opacity="1.000000" stroke="none" 
	d="
M164.067307,316.315918 
	C164.356628,319.353119 161.892487,319.275818 159.961304,319.875122 
	C158.586182,320.301849 156.384506,319.510193 156.815643,322.603790 
	C155.609436,324.367188 154.040283,324.159882 152.248413,323.179260 
	C152.399872,322.279999 153.928009,322.813721 153.225555,321.260956 
	C152.979874,319.409058 153.752350,318.145599 155.308273,317.075073 
	C157.031738,316.910522 158.438171,316.781860 160.259323,316.573853 
	C161.618240,316.139343 162.576843,315.928131 164.067307,316.315918 
z"/>
<path fill="#BABABA" opacity="1.000000" stroke="none" 
	d="
M177.742065,229.513046 
	C179.960541,232.209183 180.893906,235.036652 180.664871,238.367035 
	C178.188950,238.083984 179.401016,235.328033 177.612167,234.713898 
	C176.201263,236.319046 177.689865,237.880630 177.773956,239.831421 
	C177.508820,240.287354 177.272797,240.368607 176.669037,240.379517 
	C173.694901,237.931595 173.674179,234.632797 173.228394,231.158478 
	C173.628174,229.724457 174.566772,229.610077 175.804474,229.385986 
	C176.571228,229.266052 177.009705,229.279724 177.742065,229.513046 
z"/>
<path fill="#A5A4A5" opacity="1.000000" stroke="none" 
	d="
M149.852936,192.563934 
	C149.516907,192.354523 149.236664,191.854248 148.881866,191.057968 
	C148.815079,189.784378 148.834686,188.806686 148.827759,187.829208 
	C148.817688,186.415543 149.220078,184.976364 150.669113,184.763260 
	C152.601273,184.479126 152.896942,186.182373 153.220093,187.649628 
	C153.668198,189.684265 154.693253,191.669907 153.310913,194.049133 
	C153.063934,192.515747 150.274094,192.717590 150.576416,190.801300 
	C150.353851,191.291885 150.131287,191.782471 149.852936,192.563934 
z"/>
<path fill="#BABABA" opacity="1.000000" stroke="none" 
	d="
M177.533722,249.714966 
	C177.703262,251.454117 177.529083,253.020752 177.359451,254.546570 
	C179.505859,255.324005 178.543594,252.313248 180.530151,252.679825 
	C180.864136,255.845261 179.379105,258.701904 178.300125,261.927124 
	C177.834564,262.247986 177.651886,262.319275 177.263977,262.179810 
	C176.312088,260.325134 179.384232,258.288727 176.168152,256.919495 
	C175.556427,257.044586 175.310364,257.111115 174.797699,256.902100 
	C173.783905,254.217575 174.597504,252.108261 176.108322,249.856232 
	C176.681534,249.608093 176.935776,249.575272 177.533722,249.714966 
z"/>
<path fill="#636162" opacity="1.000000" stroke="none" 
	d="
M183.650879,280.065002 
	C184.027405,280.837189 184.027603,281.610748 184.060974,282.772888 
	C181.659836,284.037415 179.225510,284.913361 176.464172,285.927551 
	C175.917297,286.184204 175.697418,286.302673 175.139313,286.257324 
	C174.064896,284.770905 174.468246,283.685791 175.793976,282.494507 
	C178.482361,281.526855 180.878448,280.796631 183.650879,280.065002 
z"/>
<path fill="#636162" opacity="1.000000" stroke="none" 
	d="
M167.186615,326.190491 
	C167.469086,322.469788 170.384613,320.195892 171.221405,316.578430 
	C171.924454,316.486847 172.539627,316.738953 173.404602,316.990417 
	C173.383041,320.276276 170.588486,322.535278 170.163437,326.059204 
	C169.278381,326.427185 168.324692,326.467194 167.186615,326.190491 
z"/>
<path fill="#F8F7F7" opacity="1.000000" stroke="none" 
	d="
M178.020111,229.302460 
	C177.635818,229.842972 177.232498,230.031799 176.504044,230.294769 
	C175.407364,230.024673 175.164413,229.190201 174.348877,228.494598 
	C173.935806,228.223709 173.767532,228.117935 173.097656,227.671112 
	C172.443878,227.191772 172.291687,227.053452 171.939209,226.676575 
	C171.634476,226.256805 171.530014,226.075577 171.320511,225.597137 
	C170.980255,224.255096 170.970581,223.206787 171.270111,221.854507 
	C171.499634,221.384323 171.626404,221.214935 172.070465,221.051743 
	C175.789581,222.600250 177.528061,225.325531 178.020111,229.302460 
z"/>
<path fill="#A5A4A5" opacity="1.000000" stroke="none" 
	d="
M156.439697,206.940323 
	C157.113632,209.492569 156.441391,212.449631 160.539917,212.467438 
	C161.755753,212.472717 161.936310,214.064651 161.689865,215.864380 
	C159.897293,217.162430 158.405014,215.828033 156.501099,216.317200 
	C155.944672,216.136948 155.746887,215.988358 155.358047,215.511597 
	C154.500458,212.834213 154.545837,210.477997 155.276382,207.751282 
	C155.653015,207.199524 155.850708,207.013306 156.439697,206.940323 
z"/>
<path fill="#8D8C8C" opacity="1.000000" stroke="none" 
	d="
M170.300247,271.792603 
	C170.615768,274.051880 170.269897,276.126801 169.986618,278.603485 
	C170.687958,280.029846 171.158630,281.122437 171.409409,282.676636 
	C171.341248,283.530457 171.119858,283.950867 170.442902,284.470398 
	C169.639725,284.740967 169.158966,284.757019 168.343323,284.528381 
	C167.237381,283.735504 166.952682,282.812225 166.526215,281.570801 
	C166.392715,280.994965 166.359726,280.760345 166.347534,280.171326 
	C166.483032,279.357666 166.643127,278.915192 167.018997,278.182617 
	C168.388046,275.936707 166.977646,272.973694 170.300247,271.792603 
z"/>
<path fill="#BABABA" opacity="1.000000" stroke="none" 
	d="
M161.985474,216.026337 
	C164.345337,214.614960 165.914032,216.319000 167.798035,217.783142 
	C167.866791,220.709732 165.197159,219.175217 163.883667,220.516098 
	C162.679031,220.995499 161.762909,221.028824 160.508698,220.619232 
	C160.012955,220.292496 159.844772,220.118896 159.576523,219.596039 
	C159.431015,217.792953 160.537079,217.182632 161.758118,216.214462 
	C162.008270,215.955643 162.013245,216.015228 161.985474,216.026337 
z"/>
<path fill="#F8F7F7" opacity="1.000000" stroke="none" 
	d="
M180.169357,242.901077 
	C180.866058,242.251312 181.140823,239.942535 181.760544,241.548492 
	C182.708862,244.006012 184.411072,247.113815 180.886612,249.726639 
	C179.353485,247.663376 180.213120,245.373077 180.169357,242.901077 
z"/>
<path fill="#A5A4A5" opacity="1.000000" stroke="none" 
	d="
M164.121033,220.359497 
	C164.080704,217.031311 166.773560,219.965790 167.790329,218.291168 
	C169.711716,218.208939 170.872452,219.352051 172.231323,220.740616 
	C172.387756,221.057953 172.218536,221.025665 172.132507,221.030319 
	C170.984528,221.858994 170.596359,223.456726 168.671234,223.700500 
	C167.380157,223.636810 166.699387,223.077606 165.845047,222.200897 
	C165.173676,221.526306 164.722626,221.083725 164.121033,220.359497 
z"/>
<path fill="#BABABA" opacity="1.000000" stroke="none" 
	d="
M156.871277,206.626450 
	C156.831024,207.053558 156.337555,207.025986 156.090927,207.010498 
	C152.237823,204.270493 153.429962,200.449310 153.691010,196.474274 
	C153.838593,195.873520 153.827179,195.675720 153.694061,195.205826 
	C157.190414,197.946442 156.329773,202.286652 156.871277,206.626450 
z"/>
<path fill="#8D8C8C" opacity="1.000000" stroke="none" 
	d="
M159.852692,324.356689 
	C160.946701,324.187012 161.138535,324.900452 161.061859,326.037628 
	C157.965118,327.183136 155.031342,327.201660 151.842697,326.600220 
	C154.168747,323.781860 157.366531,326.305176 159.852692,324.356689 
z"/>
<path fill="#A5A4A5" opacity="1.000000" stroke="none" 
	d="
M174.671188,257.099182 
	C175.038223,257.015045 175.421753,257.016785 175.612122,256.997437 
	C174.683990,260.517853 173.565506,264.057678 172.136139,267.782898 
	C170.848358,268.043274 170.555084,267.391327 170.383972,266.232117 
	C171.553360,262.900513 171.218674,259.269012 174.671188,257.099182 
z"/>
<path fill="#8D8C8C" opacity="1.000000" stroke="none" 
	d="
M81.317398,236.784485 
	C81.670944,236.998108 81.685547,237.220490 81.813118,237.757477 
	C81.981506,238.729599 81.861130,239.357651 81.460358,240.253357 
	C80.711983,241.456711 80.052704,242.321915 78.981888,243.263153 
	C78.296448,243.626328 77.865952,243.721817 77.089287,243.704285 
	C76.558922,243.562164 76.359009,243.464996 75.982323,243.085175 
	C76.960815,240.309570 78.357536,238.024490 81.317398,236.784485 
z"/>
<path fill="#8D8C8C" opacity="1.000000" stroke="none" 
	d="
M76.345200,249.375504 
	C75.848549,249.933350 75.457695,250.186630 74.968491,250.783615 
	C71.178688,248.309555 73.053192,245.737183 75.513077,242.990112 
	C75.805542,242.802490 76.070572,243.067795 76.203400,243.200134 
	C76.764450,243.885925 76.894463,244.532547 76.913620,245.540161 
	C76.755669,246.936966 76.586464,248.001572 76.345200,249.375504 
z"/>
<path fill="#8D8C8C" opacity="1.000000" stroke="none" 
	d="
M175.693909,282.167419 
	C175.725830,283.264526 175.365402,284.272003 174.936813,285.595947 
	C174.517410,286.270508 174.095581,286.477295 173.238876,286.418274 
	C172.085022,285.539398 171.111908,284.786072 172.494354,283.659790 
	C172.697128,283.494598 172.346329,283.195435 171.697693,282.876068 
	C171.208923,281.826263 171.271576,281.118683 172.040573,280.325134 
	C172.673340,279.519623 172.948166,278.828949 173.640808,278.093201 
	C174.321259,279.438141 172.875656,281.355042 175.693909,282.167419 
z"/>
<path fill="#636162" opacity="1.000000" stroke="none" 
	d="
M171.243317,265.497437 
	C171.128967,266.511841 171.207474,267.093903 171.555618,267.822144 
	C171.851181,268.398010 171.877121,268.827698 171.868042,269.579407 
	C171.552536,270.046021 171.272064,270.190582 170.535110,270.205505 
	C167.399078,266.048462 168.607056,262.089172 169.629288,257.272461 
	C172.028702,260.426270 172.028702,260.426270 171.243317,265.497437 
z"/>
<path fill="#636162" opacity="1.000000" stroke="none" 
	d="
M177.920929,249.564804 
	C177.877426,249.887466 177.455795,249.953659 177.243362,249.973877 
	C174.813751,247.025482 175.161819,243.912674 176.848831,240.390137 
	C177.186813,240.036682 177.439423,240.208511 177.592133,240.207306 
	C178.488434,243.201813 178.214157,246.222275 177.920929,249.564804 
z"/>
<path fill="#F8F7F7" opacity="1.000000" stroke="none" 
	d="
M175.460297,269.875671 
	C178.237579,270.485168 176.758865,271.879303 176.216797,273.010315 
	C175.918045,273.633606 175.039886,273.891785 174.592697,273.332428 
	C173.626633,272.124054 173.863525,270.934753 175.460297,269.875671 
z"/>
<path fill="#F8F7F7" opacity="1.000000" stroke="none" 
	d="
M176.775528,262.185486 
	C177.058746,261.969116 177.546692,262.030701 177.781952,262.103699 
	C177.483871,263.991302 176.950500,265.805908 176.190689,268.390930 
	C174.437546,265.641205 176.089325,264.073334 176.775528,262.185486 
z"/>
<path fill="#191718" opacity="1.000000" stroke="none" 
	d="
M93.735626,223.221252 
	C93.737511,225.204895 92.526215,226.416916 90.224594,226.946991 
	C90.551918,225.238495 92.162666,224.428177 93.735626,223.221252 
z"/>
<path fill="#F8F7F7" opacity="1.000000" stroke="none" 
	d="
M172.093643,280.072998 
	C172.278870,280.871185 172.159210,281.532135 171.939621,282.518921 
	C171.741394,283.011505 171.643127,283.178192 171.289490,283.206909 
	C169.527985,282.341949 170.085266,280.930298 169.991638,279.379517 
	C170.629059,279.315430 171.208923,279.625549 172.093643,280.072998 
z"/>
<path fill="#191718" opacity="1.000000" stroke="none" 
	d="
M152.993073,321.343384 
	C154.005722,320.833588 155.565536,320.607483 155.580078,321.552979 
	C155.602936,323.039398 153.880386,322.656342 152.439285,322.860474 
	C152.365509,322.447327 152.654388,322.025818 152.993073,321.343384 
z"/>
<path fill="#636162" opacity="1.000000" stroke="none" 
	d="
M117.032440,196.221817 
	C117.537964,196.680328 117.762886,197.279602 117.966354,198.215256 
	C117.507568,198.357895 117.070236,198.164139 116.274612,197.953857 
	C116.194817,197.412430 116.473328,196.887512 117.032440,196.221817 
z"/>
<path fill="#A5A4A5" opacity="1.000000" stroke="none" 
	d="
M147.016846,193.314667 
	C148.043793,193.864288 147.863632,194.442078 146.543716,194.880859 
	C146.497070,194.455383 146.701538,194.002029 147.016846,193.314667 
z"/>
<path fill="#8D8C8C" opacity="1.000000" stroke="none" 
	d="
M173.731628,277.814697 
	C173.906082,277.212555 174.193115,276.683075 174.480133,276.153564 
	C175.180435,276.631897 175.038681,277.210876 174.368713,277.932007 
	C174.058609,278.048126 173.844223,277.887329 173.731628,277.814697 
z"/>
<path fill="#A5A4A5" opacity="1.000000" stroke="none" 
	d="
M170.731659,270.427429 
	C171.001434,270.118561 171.162689,270.057037 171.578491,269.948456 
	C171.871475,270.099091 171.909927,270.296783 171.848053,270.779358 
	C171.601425,271.169647 171.455124,271.274994 171.057053,271.281799 
	C170.744553,271.013763 170.683838,270.844269 170.731659,270.427429 
z"/>
<path fill="#8D8C8C" opacity="1.000000" stroke="none" 
	d="
M170.882965,271.260010 
	C171.122269,271.031860 171.434738,271.061371 171.591232,271.062836 
	C171.736649,271.373840 171.603638,271.616547 171.155167,271.884705 
	C170.961639,271.976990 170.997223,271.998871 171.013672,272.011841 
	C170.901291,271.845947 170.772476,271.667053 170.882965,271.260010 
z"/>
<path fill="#F8F7F7" opacity="1.000000" stroke="none" 
	d="
M76.546524,249.827820 
	C74.970886,248.549683 74.989052,247.307648 75.967773,245.636429 
	C80.292313,244.665695 82.098328,248.716431 85.556549,250.386322 
	C87.564812,252.419693 89.745041,253.692413 91.875938,255.553513 
	C93.396698,258.015350 95.855362,258.858521 97.942703,260.653198 
	C103.994133,265.889496 109.834396,270.851746 116.514923,275.282928 
	C117.116219,275.749725 117.398079,276.068085 117.796616,276.654022 
	C118.186821,277.013367 118.367233,277.373779 118.497093,277.368530 
	C118.837624,277.354706 118.795677,277.226288 118.194443,277.044861 
	C117.892807,276.710968 117.777817,276.557587 117.513962,276.136261 
	C110.736198,271.287109 104.408531,266.325348 98.188210,260.677063 
	C96.322876,259.228424 94.473602,258.332672 92.864624,256.579132 
	C90.742058,254.122009 88.009598,252.856476 85.858124,250.414917 
	C82.895752,248.118942 79.598160,246.748001 77.829453,243.332611 
	C78.733543,242.087082 79.541290,241.176407 80.610222,240.100708 
	C84.582954,238.781113 83.635674,243.063278 85.811554,244.161774 
	C86.442039,244.388550 86.510956,245.016266 86.718407,244.955978 
	C87.001648,244.873627 86.849648,244.595184 86.165428,244.370850 
	C85.203773,243.023758 85.442886,242.159683 86.993118,241.722153 
	C89.766853,243.098862 91.880020,244.797012 93.450638,247.194855 
	C93.220268,247.498749 92.998314,247.734985 92.998314,247.734985 
	C92.998314,247.734985 93.236633,247.942764 93.326248,247.803146 
	C97.017563,247.272781 98.176765,250.898132 100.953079,252.429199 
	C102.019905,254.225143 101.810318,256.378296 104.042862,257.475555 
	C106.465431,259.644714 108.868431,261.138397 112.102432,261.755554 
	C113.456703,262.224182 114.538567,262.572693 114.355148,264.138092 
	C114.393425,265.314484 115.047127,266.017090 116.175873,266.686829 
	C116.578773,266.965515 116.737679,267.079529 117.129776,267.369751 
	C117.664803,267.786346 117.964859,268.028870 118.495331,268.440002 
	C119.346581,269.039764 119.974358,269.460052 120.851364,270.012390 
	C121.398003,270.369019 121.708076,270.574585 122.257072,270.922333 
	C122.652161,271.164459 122.808624,271.263947 123.191223,271.524689 
	C123.709373,271.914673 124.001411,272.143402 124.528870,272.523621 
	C125.256325,272.959930 125.758995,273.223816 126.554268,273.559235 
	C127.730888,274.017548 128.527969,274.726807 129.854980,274.336243 
	C132.313416,275.451538 134.520615,276.727844 136.969666,278.240875 
	C138.874420,282.206238 142.491089,283.720825 145.563080,285.855713 
	C148.204956,287.691681 150.811462,289.400513 146.324966,292.271576 
	C144.487076,293.447693 146.982132,295.929169 145.250946,297.768127 
	C141.032227,295.991272 137.068329,293.971313 132.770172,291.891113 
	C131.752289,291.694183 131.084549,291.505554 130.419220,290.874084 
	C130.284927,290.674316 130.177475,290.821838 130.220947,290.741058 
	C129.992462,290.726746 129.655853,290.685181 129.232391,290.082886 
	C129.095474,289.820953 129.071518,289.936646 129.115173,289.896851 
	C128.605347,289.607910 128.007019,289.492371 127.279953,289.024292 
	C127.118889,288.768066 127.107224,288.813873 127.124588,288.792603 
	C109.696136,276.724792 93.462837,263.106567 76.546524,249.827820 
z"/>
<path fill="#141213" opacity="1.000000" stroke="none" 
	d="
M138.943954,215.457657 
	C139.123169,215.426254 139.293854,215.414536 139.692444,215.284790 
	C145.787827,215.015808 148.428650,217.890854 146.227264,222.560944 
	C145.624451,222.724167 145.378220,222.747726 144.774628,222.719650 
	C143.490921,222.644806 142.153748,220.949921 141.736252,222.782913 
	C141.239807,224.962509 143.380325,224.531403 144.980835,224.907593 
	C146.542496,225.191299 147.558914,225.727402 148.246674,227.211639 
	C148.652573,229.167435 145.770676,228.974564 146.444672,231.151840 
	C145.537628,233.164520 143.869965,233.378876 141.946701,233.778839 
	C140.799026,234.009888 139.381561,233.719284 139.807114,235.158401 
	C140.194092,236.467102 141.302368,235.681442 142.484543,235.333679 
	C143.614243,235.156219 144.348038,235.294052 145.302826,235.981689 
	C146.765350,239.179489 146.620560,242.108932 145.568970,245.370285 
	C144.431046,246.634308 143.598770,245.945984 142.742630,245.514130 
	C141.582779,244.929062 140.717834,245.398743 140.599350,246.546463 
	C140.447968,248.012833 141.893707,247.629333 143.050125,248.021378 
	C145.261459,248.641037 147.159027,249.151550 148.230347,251.463989 
	C148.353775,254.120392 146.024384,254.262527 144.368896,256.091949 
	C147.319321,255.954544 149.849457,256.093292 151.945831,258.282837 
	C152.676575,260.512939 153.033768,262.504181 153.242096,264.823853 
	C152.763428,265.415222 152.358963,265.597534 151.578583,265.685974 
	C149.076324,264.962524 148.252747,266.747498 146.773239,268.055969 
	C139.730103,264.395569 136.995865,257.959900 135.022278,250.594727 
	C132.915604,245.361938 133.730164,240.256149 133.575623,234.824371 
	C133.502945,229.305435 135.276627,224.631378 137.006622,219.525940 
	C137.464951,218.091370 138.064331,217.179153 138.781418,215.871002 
	C138.965164,215.509125 138.935425,215.477325 138.943954,215.457657 
z"/>
<path fill="#E9E8E8" opacity="1.000000" stroke="none" 
	d="
M145.214996,298.280701 
	C144.802399,296.293945 145.362976,294.589691 143.973984,292.906067 
	C142.572601,291.207458 142.749649,289.939697 145.492828,291.223602 
	C146.447952,291.670685 147.461105,290.918884 147.784073,289.935791 
	C148.160248,288.790802 147.251144,288.232513 146.367432,287.686188 
	C144.003586,286.224884 141.738358,284.597015 139.328522,283.219757 
	C137.714783,282.297485 136.827133,281.171753 137.161575,278.878906 
	C140.886734,280.332886 144.561981,282.188141 148.591370,284.119232 
	C154.009293,284.796326 158.063583,287.848328 162.884338,289.954468 
	C164.846069,290.933899 166.618607,291.428558 168.661224,292.164001 
	C170.681915,293.112854 172.190613,294.505798 174.535278,293.947083 
	C175.028732,293.437622 175.309357,293.142273 175.877335,292.718811 
	C176.151978,292.578674 176.639206,292.615265 176.818924,292.780731 
	C177.384720,293.472931 178.000305,293.500244 178.798569,293.827301 
	C179.545898,294.229523 180.049133,294.465637 180.763000,294.890198 
	C181.228333,295.833801 180.761017,296.179260 180.222778,296.558777 
	C180.057770,296.675140 179.441193,296.233582 179.669540,297.006958 
	C179.851761,297.624176 179.559372,296.833710 180.449600,297.240662 
	C183.406845,298.599396 186.268524,299.480896 188.745987,301.770874 
	C189.263885,302.167175 189.528732,302.335510 189.915512,302.716125 
	C189.838348,305.738159 187.795807,304.776520 186.360382,304.523163 
	C184.070465,304.119019 181.904037,303.200928 179.379852,302.215515 
	C175.995239,300.732330 172.838318,299.714691 169.765060,298.477264 
	C161.735275,295.244171 160.976257,295.617554 158.245453,303.843170 
	C153.530533,302.847504 149.597885,300.436859 145.214996,298.280701 
z"/>
<path fill="#636162" opacity="1.000000" stroke="none" 
	d="
M135.620575,250.793320 
	C138.010529,257.521729 141.607193,263.068176 147.116608,267.996429 
	C150.576126,269.897461 151.332428,274.647614 156.206818,273.931213 
	C156.980560,275.024933 157.029449,275.951660 156.748016,277.246948 
	C156.618515,277.979065 155.751434,278.267670 156.114761,278.409973 
	C158.556366,279.366364 159.613815,281.666046 161.382507,283.749512 
	C161.640106,284.567841 161.631332,285.053680 161.340088,285.859833 
	C155.667953,286.439270 153.966980,281.920563 151.258057,278.137665 
	C146.782272,271.571320 140.728348,266.722595 137.082596,259.925323 
	C135.662567,257.277740 134.501251,254.614227 133.847015,251.315933 
	C134.288528,250.586288 134.771988,250.466354 135.620575,250.793320 
z"/>
<path fill="#141213" opacity="1.000000" stroke="none" 
	d="
M151.036987,278.181396 
	C154.142242,280.638611 157.187164,283.473419 160.539246,286.485046 
	C161.708557,286.700653 162.419785,287.091522 163.270142,287.861450 
	C163.642593,288.493561 163.742157,288.900238 163.744415,289.640137 
	C163.630890,290.153656 163.550262,290.350372 163.237427,290.765656 
	C158.446609,288.910675 153.887970,286.837097 149.137421,284.479309 
	C149.622559,282.316345 150.299606,280.437683 151.036987,278.181396 
z"/>
<path fill="#524D45" opacity="1.000000" stroke="none" 
	d="
M135.933594,250.602081 
	C135.472305,251.002197 135.012405,250.979721 134.205505,250.939514 
	C130.818588,245.138153 131.920654,238.951630 132.200272,232.392853 
	C133.889008,231.097595 134.310013,232.085861 134.727997,233.656189 
	C135.143112,239.362167 134.420166,244.841156 135.933594,250.602081 
z"/>
<path fill="#636162" opacity="1.000000" stroke="none" 
	d="
M134.960022,233.530991 
	C134.227539,233.313019 133.540695,232.683044 132.576630,231.992035 
	C131.740250,226.443939 135.441437,222.150711 136.709961,216.812775 
	C137.613724,216.951569 137.922470,217.589050 138.154755,218.679352 
	C137.339905,223.769104 134.846512,228.139465 134.960022,233.530991 
z"/>
<path fill="#E9E8E8" opacity="1.000000" stroke="none" 
	d="
M126.300598,274.224701 
	C125.404190,273.845245 124.861870,273.681305 124.159760,273.275513 
	C123.775848,272.802399 123.556343,272.566803 123.163666,272.163544 
	C122.985893,272.000122 123.002319,271.997772 123.001923,272.006165 
	C122.579880,271.549133 121.987770,271.491638 121.195343,271.180847 
	C120.085854,270.514343 119.208908,270.023987 118.165955,269.283295 
	C117.775513,268.801697 117.555687,268.566162 117.161140,268.164490 
	C116.981819,268.002594 117.003029,267.998657 117.000572,268.009216 
	C115.918442,267.244110 114.805405,266.497467 114.338814,264.709534 
	C117.843147,264.164001 119.552216,267.401428 122.256973,268.868378 
	C124.132973,269.885803 125.838379,271.217773 127.824249,272.675537 
	C128.224319,274.040741 127.590637,274.379059 126.300598,274.224701 
z"/>
<path fill="#E9E8E8" opacity="1.000000" stroke="none" 
	d="
M112.259430,261.514740 
	C108.592934,263.613647 106.402077,260.993347 104.058746,258.104797 
	C104.111671,257.333893 104.189964,257.172607 104.436752,256.801544 
	C104.760864,256.503235 104.916473,256.414734 105.331764,256.257812 
	C107.758240,257.862396 109.925041,259.535461 112.259430,261.514740 
z"/>
<path fill="#E9E8E8" opacity="1.000000" stroke="none" 
	d="
M87.138214,241.557846 
	C85.963135,242.462067 86.107391,243.375198 86.874443,244.710968 
	C83.820198,244.816605 82.847717,242.192657 81.165573,239.981567 
	C81.091019,239.441483 81.310631,238.947281 81.728165,238.262589 
	C83.610977,239.135086 85.295868,240.198074 87.138214,241.557846 
z"/>
<path fill="#E9E8E8" opacity="1.000000" stroke="none" 
	d="
M103.986023,258.013763 
	C101.157936,257.671448 99.512589,256.564423 101.071259,253.073578 
	C102.487465,253.706711 103.851837,254.699127 105.403824,255.940460 
	C105.591438,256.189362 105.320045,256.607117 105.163055,256.800507 
	C104.840706,257.153748 104.675346,257.313599 104.270233,257.721527 
	C104.030472,257.969574 104.001045,257.999023 103.986023,258.013763 
z"/>
<path fill="#191718" opacity="1.000000" stroke="none" 
	d="
M124.501648,251.754410 
	C123.237732,253.599884 122.123375,255.160110 121.009018,256.720337 
	C120.653297,256.350922 120.297577,255.981491 119.941856,255.612061 
	C120.463242,252.005692 122.067856,250.594101 124.501648,251.754410 
z"/>
<path fill="#636162" opacity="1.000000" stroke="none" 
	d="
M131.072998,209.363861 
	C133.468536,209.137268 136.346863,208.552139 137.002533,212.603775 
	C134.659622,212.603088 132.933075,211.138245 131.072998,209.363861 
z"/>
<path fill="#A5A4A5" opacity="1.000000" stroke="none" 
	d="
M124.441452,259.054871 
	C125.688370,261.441681 125.053589,262.274017 122.688118,262.243042 
	C121.460632,262.226990 120.690575,262.008789 120.792336,260.797852 
	C120.964478,258.749420 122.030434,257.839508 124.441452,259.054871 
z"/>
<path fill="#191718" opacity="1.000000" stroke="none" 
	d="
M109.720001,238.737579 
	C108.847702,239.446121 107.701134,240.195755 107.517647,239.194092 
	C107.214828,237.541000 108.526810,236.247803 110.167778,236.530167 
	C111.157310,236.700439 110.429558,237.861191 109.720001,238.737579 
z"/>
<path fill="#636162" opacity="1.000000" stroke="none" 
	d="
M120.519302,201.413086 
	C122.591782,201.240997 124.675102,201.460098 124.099609,204.773071 
	C122.484711,204.338181 121.461220,203.117447 120.519302,201.413086 
z"/>
<path fill="#DFDEDF" opacity="1.000000" stroke="none" 
	d="
M126.155945,274.293030 
	C126.528488,273.828003 127.110474,273.646851 127.860474,273.203766 
	C128.616653,273.222382 129.204819,273.502899 129.949600,273.979309 
	C129.154327,277.057251 127.684715,275.117188 126.155945,274.293030 
z"/>
<path fill="#524D45" opacity="1.000000" stroke="none" 
	d="
M138.485382,218.752991 
	C137.485565,218.697495 137.103943,218.097809 136.988022,216.907898 
	C137.424713,216.162659 137.883575,215.803909 138.653778,215.477142 
	C138.886841,216.497086 138.808533,217.485046 138.485382,218.752991 
z"/>
<path fill="#DFDEDF" opacity="1.000000" stroke="none" 
	d="
M114.187454,264.352386 
	C115.038811,265.331451 115.850136,266.335327 116.829788,267.679504 
	C115.203255,267.881836 114.184509,266.971161 114.086830,264.727661 
	C114.062851,264.335663 114.147415,264.377197 114.187454,264.352386 
z"/>
<path fill="#191718" opacity="1.000000" stroke="none" 
	d="
M104.464600,242.443588 
	C104.522591,242.407944 104.406601,242.479233 104.464600,242.443588 
z"/>
<path fill="#191718" opacity="1.000000" stroke="none" 
	d="
M128.531784,247.553253 
	C128.473511,247.588211 128.590057,247.518280 128.531784,247.553253 
z"/>
<path fill="#636162" opacity="1.000000" stroke="none" 
	d="
M130.202652,209.125275 
	C130.146744,208.721832 130.275513,208.213242 130.898071,208.889557 
	C130.799637,209.119278 130.628464,209.151749 130.202652,209.125275 
z"/>
<path fill="#D3D2D3" opacity="1.000000" stroke="none" 
	d="
M178.611633,301.064423 
	C182.655334,301.335205 185.714767,304.216766 189.835571,303.199280 
	C194.240723,306.498413 194.177887,310.051880 189.423096,316.458618 
	C184.638260,312.430908 178.678452,312.003448 173.143860,309.686493 
	C171.863739,304.953033 174.626419,302.775787 178.611633,301.064423 
z"/>
<path fill="#504535" opacity="1.000000" stroke="none" 
	d="
M175.744812,294.908936 
	C173.035446,297.307709 171.243805,294.250092 168.669556,293.522308 
	C169.323853,291.683563 171.877029,292.327850 172.666962,290.016541 
	C173.896210,289.306152 174.779877,289.386749 175.677826,290.613403 
	C175.869003,291.120270 175.873520,291.306824 175.919876,291.770203 
	C175.261810,292.817261 175.505814,293.719574 175.744812,294.908936 
z"/>
<path fill="#636162" opacity="1.000000" stroke="none" 
	d="
M188.904846,301.679138 
	C186.073242,300.835693 183.159103,299.654236 179.972229,298.227051 
	C180.926865,295.094849 182.675629,296.952637 184.590393,297.736084 
	C186.144684,299.185394 188.750717,298.779297 188.904846,301.679138 
z"/>
<path fill="#D3D2D3" opacity="1.000000" stroke="none" 
	d="
M184.915375,297.664307 
	C183.350372,297.854218 181.797943,297.714386 179.972519,297.777954 
	C179.076218,297.052429 176.988861,298.106934 177.173645,296.589050 
	C177.457321,294.259003 179.718506,296.893066 180.791779,295.323761 
	C182.510071,295.447906 183.835907,296.186340 184.915375,297.664307 
z"/>
<path fill="#5A5859" opacity="1.000000" stroke="none" 
	d="
M175.935394,290.532410 
	C175.129089,290.602264 174.393661,290.270813 173.351608,289.926117 
	C172.876434,289.764252 172.707886,289.615662 172.395554,289.161133 
	C172.149200,288.412842 172.104813,287.965179 172.193939,287.178680 
	C172.361115,286.643677 172.461975,286.441284 172.832672,286.033325 
	C173.495422,285.854523 173.888382,285.881256 174.574997,285.910217 
	C175.079483,285.942017 175.290298,285.971558 175.819153,286.033447 
	C176.093536,287.420868 176.049911,288.775970 175.935394,290.532410 
z"/>
<path fill="#D3D2D3" opacity="1.000000" stroke="none" 
	d="
M175.917755,294.775482 
	C174.630341,294.456421 174.947403,293.433014 175.686188,292.216064 
	C175.961716,292.046997 176.152405,292.278656 176.152191,292.428650 
	C176.084747,293.164001 176.017517,293.749329 175.917755,294.775482 
z"/>
<path fill="#D3D2D3" opacity="1.000000" stroke="none" 
	d="
M178.858673,293.751404 
	C178.471954,293.817810 177.901260,293.642181 177.164597,293.206360 
	C177.557327,293.133911 178.116013,293.321625 178.858673,293.751404 
z"/>
<path fill="#5A5859" opacity="1.000000" stroke="none" 
	d="
M186.338257,282.466675 
	C186.218964,281.979218 186.355865,281.423340 186.492767,280.867493 
	C186.663879,281.116943 186.834991,281.366394 187.049225,281.915741 
	C186.926392,282.276520 186.760437,282.337433 186.338257,282.466675 
z"/>
<path fill="#5A5859" opacity="1.000000" stroke="none" 
	d="
M191.260071,280.956543 
	C191.250122,280.748749 191.527527,280.462708 192.111389,280.122894 
	C192.127716,280.338867 191.837585,280.608582 191.260071,280.956543 
z"/>
<path fill="#DFDEDF" opacity="1.000000" stroke="none" 
	d="
M178.771072,300.720337 
	C176.705063,303.345459 173.671753,305.136597 172.957916,309.156250 
	C168.023239,307.906097 163.217545,306.285278 158.195343,304.377441 
	C158.060135,295.110260 160.331589,293.593689 168.821121,296.823059 
	C172.053482,298.052612 175.301773,299.240326 178.771072,300.720337 
z"/>
<path fill="#8D8C8C" opacity="1.000000" stroke="none" 
	d="
M164.505356,316.171448 
	C163.575912,316.533539 162.601334,316.638214 161.150421,316.618713 
	C160.412277,312.129211 163.268707,314.384247 165.286743,314.745789 
	C165.074585,315.261017 164.379837,315.111786 164.505356,316.171448 
z"/>
<path fill="#524D45" opacity="1.000000" stroke="none" 
	d="
M130.446106,290.879211 
	C130.954666,290.790192 131.516968,291.053558 132.257599,291.573914 
	C131.790543,291.631165 131.145187,291.431366 130.446106,290.879211 
z"/>
<path fill="#524D45" opacity="1.000000" stroke="none" 
	d="
M127.246460,289.065430 
	C127.672859,288.976227 128.226837,289.184387 128.969818,289.624817 
	C128.563889,289.692322 127.968956,289.527557 127.246460,289.065430 
z"/>
<path fill="#524D45" opacity="1.000000" stroke="none" 
	d="
M129.216431,290.072662 
	C129.421280,289.910065 129.747086,289.999207 130.222382,290.300537 
	C130.027069,290.449951 129.682236,290.387177 129.216431,290.072662 
z"/>
<path fill="#5A5859" opacity="1.000000" stroke="none" 
	d="
M146.223511,231.188812 
	C144.613434,229.131561 146.435303,228.836334 147.593521,228.051300 
	C149.407486,224.714462 144.876617,224.881195 144.906952,222.243500 
	C148.462463,221.294815 146.960083,219.332855 145.740677,218.214630 
	C144.316116,216.908249 142.356094,216.185760 140.274353,215.188354 
	C140.003342,213.304199 141.307755,212.958435 143.218628,212.756409 
	C143.636261,212.665726 143.893036,212.659805 144.018829,212.633972 
	C144.500397,212.384415 144.888153,212.260773 145.614182,212.282959 
	C146.101517,212.428375 146.282364,212.527435 146.612457,212.897430 
	C148.454865,214.927628 150.148010,216.686920 152.025177,218.728439 
	C154.590836,223.109879 151.816483,226.865112 151.157196,231.049072 
	C149.433304,231.717743 147.970016,231.899948 146.223511,231.188812 
z"/>
<path fill="#F8F7F7" opacity="1.000000" stroke="none" 
	d="
M149.679718,232.019562 
	C150.713470,227.748169 151.419235,223.705200 152.167084,219.336456 
	C152.209183,219.010681 152.553574,219.022675 152.725891,219.023666 
	C156.427261,219.824692 155.525803,223.011810 156.315247,225.742889 
	C156.148956,233.462036 158.353241,240.517075 158.399536,248.205170 
	C158.393387,250.320709 158.340500,252.007751 158.354630,254.109161 
	C158.301254,255.883362 158.283264,257.246216 157.878662,258.965759 
	C157.606125,259.563324 157.460464,259.782440 156.963562,260.174866 
	C156.088791,260.355225 155.609177,260.215485 154.896973,259.683350 
	C153.011826,257.524597 152.176804,255.035660 149.999268,253.150879 
	C149.140442,252.951019 150.942795,251.483368 149.095917,252.260681 
	C148.669617,252.430008 148.479095,252.441391 148.075592,252.261475 
	C146.447678,251.135162 145.032730,250.200165 143.324890,249.121063 
	C142.878876,248.810211 142.725739,248.643463 142.514038,248.143585 
	C142.510391,247.593033 142.565353,247.375626 142.843781,246.910126 
	C143.279251,246.600632 143.491257,246.539230 144.032104,246.478973 
	C145.430405,246.270035 146.444214,246.474380 147.642990,246.977951 
	C147.856613,247.063797 148.234863,247.113449 148.234863,247.113449 
	C148.234863,247.113449 148.091629,246.708435 148.003723,246.418564 
	C147.451340,242.694778 147.591507,239.254669 147.871994,235.428772 
	C148.178406,233.996216 148.626129,233.051636 149.679718,232.019562 
z"/>
<path fill="#8D8C8C" opacity="1.000000" stroke="none" 
	d="
M155.577118,225.980240 
	C154.645401,223.734741 154.067719,221.596069 153.194107,219.241028 
	C152.901794,216.310333 152.905396,213.595993 152.908768,210.428940 
	C153.107330,209.882156 153.306137,209.788101 153.823914,209.776947 
	C155.444855,211.719437 154.975433,214.001740 155.925400,216.040573 
	C156.237976,216.061234 156.519257,216.074585 156.659729,216.065079 
	C158.501175,216.240250 159.093811,217.566330 159.839020,219.202789 
	C159.974472,219.530807 159.824127,219.628983 159.855438,219.713135 
	C161.139709,220.874420 160.544266,222.055405 159.887131,223.551392 
	C158.693054,225.041473 157.465149,225.824478 155.577118,225.980240 
z"/>
<path fill="#F8F7F7" opacity="1.000000" stroke="none" 
	d="
M156.163605,215.611450 
	C153.671371,215.145157 154.282669,212.775238 153.805756,210.512756 
	C151.528458,206.276489 152.855164,202.057617 152.742554,197.592896 
	C153.092804,196.904388 153.261215,196.619827 153.639816,196.203278 
	C154.353455,199.514374 154.856903,202.957443 155.602325,206.697769 
	C155.925934,209.717239 156.007584,212.439468 156.163605,215.611450 
z"/>
<path fill="#BABABA" opacity="1.000000" stroke="none" 
	d="
M152.631134,197.450821 
	C153.217300,201.228745 152.534927,205.340881 153.784729,209.728256 
	C153.745819,210.149750 153.323090,210.086197 153.115814,210.031204 
	C151.191650,205.959412 151.925705,201.828552 152.631134,197.450821 
z"/>
<path fill="#A5A4A5" opacity="1.000000" stroke="none" 
	d="
M147.541458,203.843445 
	C148.001282,204.043198 148.043579,204.292435 148.196564,204.906158 
	C148.036514,206.997513 147.765762,208.724365 146.951569,210.399750 
	C145.628357,208.083557 146.119736,205.959808 147.541458,203.843445 
z"/>
<path fill="#A5A4A5" opacity="1.000000" stroke="none" 
	d="
M146.868927,212.812714 
	C146.761703,213.168350 146.374313,213.120117 146.188232,213.061188 
	C145.392029,212.238144 145.548080,211.561539 146.634613,210.984863 
	C147.032196,211.023926 147.003510,211.001266 146.989655,210.988129 
	C146.975937,211.469040 146.976044,211.963058 146.868927,212.812714 
z"/>
<path fill="#504535" opacity="1.000000" stroke="none" 
	d="
M166.362549,317.546722 
	C166.273346,317.419952 166.600357,317.347076 166.600357,317.347076 
	C166.600357,317.347076 166.451752,317.673492 166.362549,317.546722 
z"/>
<path fill="#F0EFEF" opacity="1.000000" stroke="none" 
	d="
M147.019745,210.599930 
	C146.285645,211.170563 146.116150,211.743637 146.016510,212.690582 
	C145.577332,212.968124 145.152481,212.933990 144.436127,212.754013 
	C144.490601,207.817139 146.118057,203.343063 147.284439,198.318176 
	C148.505188,200.146805 147.844162,201.628586 147.961334,203.414246 
	C146.156418,205.699799 147.361710,208.054153 147.019745,210.599930 
z"/>
<path fill="#F8F7F7" opacity="1.000000" stroke="none" 
	d="
M157.944550,224.297653 
	C158.615540,222.792099 159.260345,221.694244 159.895935,220.196838 
	C160.971237,219.908997 162.055756,220.020706 163.546814,220.113556 
	C164.419250,220.261444 164.885132,220.428177 165.377411,220.841431 
	C165.951035,222.467773 164.791168,224.578323 167.463287,225.236420 
	C168.985428,225.645615 170.247818,225.534927 171.750000,225.844727 
	C172.015884,226.012939 171.998428,225.998459 171.990112,225.990707 
	C172.205017,226.218628 172.432434,226.450165 172.839722,226.846069 
	C173.015396,227.014572 173.000458,227.000305 172.993500,226.992706 
	C173.268829,227.263657 173.545242,227.547928 173.968597,228.095184 
	C174.163773,228.548630 174.206985,228.743973 174.144592,229.220245 
	C174.052261,233.090530 175.315659,236.377747 176.843521,239.860352 
	C177.119370,243.053940 177.051910,246.071182 177.007690,249.541260 
	C175.545044,251.814911 175.587738,254.140717 175.001770,256.630920 
	C172.875153,259.439575 172.694702,262.660767 171.335052,265.726135 
	C171.050461,263.502899 171.050461,261.076019 171.050461,258.649139 
	C170.759628,258.649109 170.468796,258.649078 170.177963,258.649048 
	C170.177963,262.308136 170.177963,265.967255 170.509079,269.903229 
	C170.840195,270.180115 170.897842,270.633240 171.010056,270.832550 
	C171.122269,271.031860 171.087006,271.529449 171.058563,271.777130 
	C167.690018,273.257080 169.921112,276.407776 168.522675,278.629272 
	C164.672089,276.354095 166.185577,272.489563 165.697739,269.210968 
	C165.280563,266.407166 165.908691,263.589691 166.547485,260.412811 
	C166.600159,258.912109 166.486694,257.833344 166.426849,256.355835 
	C167.427277,253.546143 167.575272,250.920105 168.617905,248.164383 
	C169.096939,247.807846 169.340042,247.750778 169.917252,247.852112 
	C171.650360,249.912262 170.504028,252.256210 171.274902,254.081955 
	C170.808090,248.787796 170.671814,243.306152 170.642441,237.813919 
	C170.634384,236.308990 171.429077,234.549011 169.540375,233.393814 
	C166.394592,234.697495 166.377319,237.174622 166.367310,240.042694 
	C165.149200,242.147537 165.389099,244.127350 165.364532,246.455475 
	C165.362061,250.720901 165.398972,254.593781 165.324402,258.880951 
	C165.255081,259.837189 165.141449,260.364929 164.781372,261.225555 
	C162.940720,262.861542 162.557434,261.693054 162.275116,260.080750 
	C162.194473,259.573029 162.147964,259.455994 162.147964,259.455994 
	C162.171890,259.002472 162.141678,258.960968 162.145691,259.549805 
	C161.713699,261.582703 163.153305,262.845276 163.653458,264.720642 
	C163.826843,265.253784 163.886490,265.470764 164.008682,266.020264 
	C164.219238,267.466156 164.160263,268.590698 164.294434,270.034912 
	C164.375336,271.293640 164.871643,272.027313 165.530396,273.072937 
	C165.996536,274.335175 165.969345,275.290680 165.569763,276.586975 
	C165.028305,277.307526 164.580917,277.533051 163.665085,277.581421 
	C163.030029,277.460693 162.785767,277.364563 162.223785,277.034973 
	C161.728149,276.608490 161.550232,276.415497 161.156815,275.893829 
	C159.484329,272.991272 159.979385,270.005829 159.100952,266.914856 
	C158.408966,263.245850 158.877029,259.871704 158.295898,256.221527 
	C159.253799,253.113007 157.392822,249.846085 159.874207,247.038437 
	C159.721985,241.996674 158.684967,237.429764 157.942505,232.419220 
	C157.629791,230.404144 157.673294,228.771545 157.659653,226.732391 
	C157.737457,225.781265 157.819946,225.242096 157.944550,224.297653 
z"/>
<path fill="#FFFFFF" opacity="1.000000" stroke="none" 
	d="
M174.290802,229.589813 
	C174.039001,229.501160 174.024597,229.512527 174.021408,229.503876 
	C173.738632,228.969009 173.589172,228.408081 173.756363,227.414093 
	C175.623993,227.065613 176.026596,228.173203 176.122375,229.975159 
	C175.287766,230.958099 175.045715,230.008926 174.290802,229.589813 
z"/>
<path fill="#BABABA" opacity="1.000000" stroke="none" 
	d="
M172.073822,225.600189 
	C170.832794,226.492706 169.713425,227.374100 168.110962,226.358688 
	C167.393860,225.382370 167.209625,224.589813 167.716324,223.377533 
	C169.558319,223.203415 170.018280,221.365768 171.709259,221.071686 
	C172.074921,222.419128 172.103348,223.803268 172.073822,225.600189 
z"/>
<path fill="#BABABA" opacity="1.000000" stroke="none" 
	d="
M173.704193,226.998703 
	C173.982758,227.566162 174.022507,228.116653 174.040237,229.081192 
	C173.645782,228.901459 173.273331,228.307678 172.943710,227.349503 
	C172.986526,226.985107 173.465378,226.981735 173.704193,226.998703 
z"/>
<path fill="#BABABA" opacity="1.000000" stroke="none" 
	d="
M172.970551,226.733826 
	C172.701477,226.857605 172.387573,226.700623 172.027740,226.263306 
	C172.296448,226.139648 172.611084,226.296356 172.970551,226.733826 
z"/>
<path fill="#F0EFEF" opacity="1.000000" stroke="none" 
	d="
M160.065399,219.178650 
	C158.086960,219.516953 157.955261,217.752670 156.965668,216.367126 
	C158.222992,211.506042 159.824020,217.575027 161.652344,215.967865 
	C162.117661,217.381378 160.830734,217.906372 160.065399,219.178650 
z"/>
<path fill="#A5A4A5" opacity="1.000000" stroke="none" 
	d="
M165.108093,278.216309 
	C165.139771,276.541199 165.169617,275.241333 165.205185,273.453827 
	C164.861191,271.895233 164.678101,270.797119 164.657761,269.241089 
	C164.601791,266.322205 164.602371,263.838898 165.014603,261.365906 
	C165.244629,259.985901 165.486496,258.715576 167.618011,258.772705 
	C167.410370,265.332123 165.782562,271.690063 168.101379,278.448608 
	C167.907776,278.985199 167.600067,279.126251 167.149109,279.478577 
	C165.538971,280.765625 165.545776,279.292603 165.108093,278.216309 
z"/>
<path fill="#636162" opacity="1.000000" stroke="none" 
	d="
M164.755341,277.670776 
	C165.297928,278.685394 165.659607,279.405396 166.752899,279.736267 
	C166.996460,279.889679 166.987091,280.089508 166.965408,280.589081 
	C166.778610,282.193085 165.694336,282.714783 164.506607,283.586426 
	C163.598770,284.126801 162.948166,284.350922 161.940765,284.078186 
	C160.703171,282.422577 160.715866,280.742188 160.526840,278.752869 
	C160.668365,277.915100 160.910843,277.504242 161.564423,276.960022 
	C162.121521,276.761536 162.365601,276.752502 162.721283,277.092377 
	C163.355499,277.461029 163.878113,277.480713 164.755341,277.670776 
z"/>
<path fill="#D3D2D3" opacity="1.000000" stroke="none" 
	d="
M163.963379,282.987030 
	C165.392044,282.792603 165.902374,281.947662 166.697067,281.016632 
	C167.850586,281.506226 167.903809,282.436432 167.974930,283.736328 
	C168.202652,284.304565 168.336960,284.531067 168.466675,285.155579 
	C168.337997,285.790833 168.213943,286.028076 167.744476,286.477966 
	C167.135117,286.759491 166.871140,286.828400 166.195190,286.904602 
	C163.689072,286.521820 162.990417,285.327759 163.963379,282.987030 
z"/>
<path fill="#524D45" opacity="1.000000" stroke="none" 
	d="
M167.661835,286.211182 
	C167.656708,285.785156 167.827438,285.346313 167.964874,285.155151 
	C168.497559,284.471588 169.127960,284.542786 169.852234,284.136871 
	C170.328888,283.810150 170.565857,283.636475 170.906189,283.249023 
	C171.034134,283.068878 171.435257,282.950836 171.637466,282.897827 
	C174.596985,282.686188 171.876541,284.807892 172.997543,285.600952 
	C173.069519,286.042328 173.036545,286.256927 172.962921,286.794556 
	C172.246964,287.684204 171.469635,287.995209 170.162064,288.025330 
	C168.862686,287.823883 168.121048,287.448364 167.661835,286.211182 
z"/>
<path fill="#191718" opacity="1.000000" stroke="none" 
	d="
M169.731232,283.891663 
	C169.619553,284.314545 169.171799,284.678894 168.413177,285.003601 
	C168.102325,284.963989 168.064697,284.521790 168.066528,284.299927 
	C168.510605,283.996399 168.952881,283.914764 169.731232,283.891663 
z"/>
<path fill="#D3D2D3" opacity="1.000000" stroke="none" 
	d="
M167.687744,222.853348 
	C167.959183,223.805862 167.954193,224.575943 167.920044,225.732971 
	C162.215652,227.445007 164.361801,223.965424 165.201538,221.250290 
	C166.546768,221.014771 166.852264,222.003616 167.687744,222.853348 
z"/>
<path fill="#524D45" opacity="1.000000" stroke="none" 
	d="
M77.654770,243.025024 
	C80.475967,245.156830 83.026138,247.315903 85.792130,249.725296 
	C86.110596,250.302948 86.213264,250.630295 86.016296,251.376022 
	C82.738884,249.644455 79.761070,247.494522 76.399956,245.315475 
	C76.063599,244.790161 76.110542,244.293961 76.246857,243.565109 
	C76.685410,243.239075 77.034576,243.145691 77.654770,243.025024 
z"/>
<path fill="#5A5859" opacity="1.000000" stroke="none" 
	d="
M116.823868,276.266663 
	C110.262939,271.511383 104.192101,266.878448 97.948586,261.987854 
	C97.638527,261.407043 97.501160,261.083832 97.691315,260.348083 
	C104.953430,264.662445 110.581032,271.063232 118.023972,275.676453 
	C117.922112,276.099518 117.618050,276.244293 116.823868,276.266663 
z"/>
<path fill="#5A5859" opacity="1.000000" stroke="none" 
	d="
M123.839333,280.501221 
	C126.719406,281.629608 129.473679,283.142670 132.227966,284.655731 
	C128.721191,285.698242 126.735558,283.293457 124.037277,281.940643 
	C123.802521,281.418121 123.758026,281.152008 123.839333,280.501221 
z"/>
<path fill="#5A5859" opacity="1.000000" stroke="none" 
	d="
M85.895889,252.030823 
	C85.775078,251.492844 85.833458,251.191299 85.949898,250.432678 
	C88.254211,251.786423 90.500473,253.597244 92.947914,255.674866 
	C92.893448,256.114655 92.637787,256.287628 91.949966,256.294434 
	C89.172852,255.589340 87.944656,253.476242 85.895889,252.030823 
z"/>
<path fill="#524D45" opacity="1.000000" stroke="none" 
	d="
M91.622742,256.465851 
	C91.789680,256.097321 92.061577,256.066437 92.741287,255.988586 
	C94.635071,257.112762 96.121040,258.283875 97.812927,259.695251 
	C97.989845,260.235840 97.960846,260.536133 97.853882,261.283325 
	C95.759842,260.087982 93.743767,258.445740 91.622742,256.465851 
z"/>
<path fill="#5A5859" opacity="1.000000" stroke="none" 
	d="
M136.770493,287.120758 
	C138.703384,288.126862 140.961456,288.336121 142.317917,290.859436 
	C139.587891,290.788025 137.898346,289.509888 135.941238,288.244751 
	C135.945892,287.579407 136.187851,287.328888 136.770493,287.120758 
z"/>
<path fill="#504535" opacity="1.000000" stroke="none" 
	d="
M118.195877,276.360718 
	C119.980865,277.050110 121.532982,277.885681 122.546585,279.845673 
	C120.434067,280.272278 119.422180,278.679901 117.916702,277.573700 
	C117.792404,277.033539 117.849571,276.802216 118.195877,276.360718 
z"/>
<path fill="#F0EFEF" opacity="1.000000" stroke="none" 
	d="
M136.902176,286.857605 
	C136.805511,287.361023 136.574066,287.628174 136.066925,287.903381 
	C135.233948,287.492523 134.988190,286.947418 135.594955,286.471283 
	C135.812546,286.300568 136.366791,286.558838 136.902176,286.857605 
z"/>
<path fill="#E9E8E8" opacity="1.000000" stroke="none" 
	d="
M93.345909,247.647339 
	C92.827881,248.186829 93.361443,249.780914 91.790604,249.365860 
	C92.104996,248.877045 92.419388,248.388214 92.977020,247.699066 
	C93.220268,247.498749 93.275955,247.631134 93.345909,247.647339 
z"/>
<path fill="#DFDEDF" opacity="1.000000" stroke="none" 
	d="
M121.136429,271.251373 
	C121.529434,271.174408 122.096077,271.344086 122.832123,271.764191 
	C122.437706,271.842407 121.873886,271.670227 121.136429,271.251373 
z"/>
<path fill="#E9E8E8" opacity="1.000000" stroke="none" 
	d="
M87.012390,244.990601 
	C87.145302,245.138031 87.265686,245.295883 87.386063,245.453735 
	C87.290733,245.406601 87.195412,245.359451 87.039635,245.169342 
	C86.979187,245.026367 86.999847,245.001007 87.012390,244.990601 
z"/>
<path fill="#504535" opacity="1.000000" stroke="none" 
	d="
M123.556244,280.015320 
	C123.958023,280.378082 123.950912,280.639648 123.895409,281.292725 
	C123.190704,281.261414 122.132301,280.997498 123.556244,280.015320 
z"/>
<path fill="#DFDEDF" opacity="1.000000" stroke="none" 
	d="
M123.092209,272.226593 
	C123.253380,272.192749 123.520859,272.385376 123.894150,272.805847 
	C123.732811,272.840149 123.465668,272.646606 123.092209,272.226593 
z"/>
<path fill="#504535" opacity="1.000000" stroke="none" 
	d="
M116.487976,276.416565 
	C116.648651,276.108582 116.963539,276.072784 117.752319,275.995911 
	C118.226204,275.954865 118.375595,276.027527 118.430305,276.089050 
	C118.374168,276.345764 118.263313,276.540955 117.943848,277.000519 
	C117.370895,277.072845 117.006546,276.880798 116.487976,276.416565 
z"/>
<path fill="#DFDEDF" opacity="1.000000" stroke="none" 
	d="
M117.089256,268.228729 
	C117.250526,268.194000 117.519241,268.385437 117.893944,268.804871 
	C117.732185,268.840240 117.464439,268.647552 117.089256,268.228729 
z"/>
<path fill="#F0EFEF" opacity="1.000000" stroke="none" 
	d="
M133.555130,287.458618 
	C133.592087,287.519196 133.518173,287.398010 133.555130,287.458618 
z"/>
<path fill="#D3D2D3" opacity="1.000000" stroke="none" 
	d="
M147.756622,252.413910 
	C148.054794,252.063400 148.246964,252.056656 148.727371,252.039490 
	C149.165054,251.884338 149.314514,251.739594 149.697052,251.802399 
	C152.467148,253.217026 153.736008,255.527954 155.031860,258.173462 
	C154.774216,260.341339 153.743744,260.487915 152.078110,259.412262 
	C149.830734,257.734924 147.902618,255.911606 145.185501,257.194489 
	C144.136948,257.689545 142.880814,258.560913 142.433289,257.107300 
	C142.165314,256.236969 142.501862,254.527466 144.008804,253.993347 
	C145.216949,253.565109 146.436249,253.168365 147.756622,252.413910 
z"/>
<path fill="#5A5859" opacity="1.000000" stroke="none" 
	d="
M148.956635,233.706970 
	C147.941681,238.288239 149.278107,242.709961 149.074493,247.702850 
	C147.656021,247.840408 146.193115,247.377472 144.385345,246.740326 
	C143.947952,246.410706 143.855453,246.255280 143.966827,245.920883 
	C145.996857,242.767136 144.475449,239.499084 145.009216,235.932892 
	C145.630112,233.692551 146.945114,233.246094 148.956635,233.706970 
z"/>
<path fill="#A5A4A5" opacity="1.000000" stroke="none" 
	d="
M159.559784,266.762604 
	C162.150101,269.282532 160.009613,272.797638 161.999786,275.614685 
	C160.491241,277.173065 159.270432,276.314789 157.855713,275.064697 
	C156.825485,270.739380 153.185120,269.566101 150.088776,267.343079 
	C149.604752,266.339874 149.879303,265.726501 150.711700,265.022705 
	C151.541840,264.935822 152.051422,265.007629 152.942413,265.139160 
	C154.305466,264.623779 155.253128,265.189850 156.507446,265.311920 
	C156.995224,265.359253 157.190353,265.379700 157.672882,265.465576 
	C158.517899,265.745789 159.001434,266.065613 159.559784,266.762604 
z"/>
<path fill="#D3D2D3" opacity="1.000000" stroke="none" 
	d="
M149.495941,233.796097 
	C147.881454,233.813553 146.690948,234.379669 145.280746,235.252350 
	C144.288544,235.645264 143.547043,235.834030 142.433105,236.110291 
	C140.422592,236.132797 140.349548,235.061798 140.783875,233.478455 
	C142.519196,232.562057 144.005768,231.991760 145.725479,231.176559 
	C147.254028,231.550598 148.639236,229.456055 149.954834,231.426636 
	C149.911041,232.419510 149.814362,233.047882 149.495941,233.796097 
z"/>
<path fill="#8D8C8C" opacity="1.000000" stroke="none" 
	d="
M157.328308,265.539734 
	C155.819366,267.446381 154.912888,265.547180 153.564636,265.333527 
	C152.958984,263.307281 150.441986,262.086578 151.730347,259.409180 
	C152.769424,259.184937 153.743866,260.568695 154.830841,258.751038 
	C155.280579,258.833130 155.501694,259.158752 155.860748,259.742279 
	C156.687943,260.687347 157.217514,261.474579 157.615555,262.757874 
	C157.866364,263.835785 157.831406,264.551483 157.328308,265.539734 
z"/>
<path fill="#636162" opacity="1.000000" stroke="none" 
	d="
M144.088196,245.396286 
	C144.170700,245.741898 144.096512,246.152588 144.068481,246.359344 
	C143.852875,246.579712 143.665298,246.593292 143.199753,246.654892 
	C142.787918,247.033508 142.687836,247.373856 142.771667,247.949524 
	C142.916397,248.173523 143.010635,248.569992 143.021317,248.773468 
	C141.392776,248.991959 139.173843,249.439941 138.746613,247.527283 
	C138.471558,246.295837 139.481415,244.222946 140.573578,243.378708 
	C141.987411,242.285858 143.281235,243.568359 144.088196,245.396286 
z"/>
<path fill="#636162" opacity="1.000000" stroke="none" 
	d="
M145.257278,225.394272 
	C143.192581,225.784729 140.744415,226.725357 139.943939,223.796890 
	C139.449585,221.988297 140.386124,220.625534 142.152496,220.015869 
	C142.967178,219.734695 143.746536,219.997604 144.127441,221.285141 
	C142.437210,222.176498 143.238159,222.523041 144.154739,223.042587 
	C144.868027,223.446869 145.165375,224.236938 145.257278,225.394272 
z"/>
<path fill="#DFDEDF" opacity="1.000000" stroke="none" 
	d="
M145.479523,225.880463 
	C144.804550,224.436005 142.444626,223.964172 143.867340,221.826950 
	C144.121429,221.666321 144.595840,221.807037 144.832031,221.880753 
	C146.478577,223.067383 147.980286,224.085022 149.271011,225.322693 
	C150.346710,226.354172 150.901657,227.576401 148.259644,227.987549 
	C147.167450,227.348465 146.456543,226.684753 145.479523,225.880463 
z"/>
<path fill="#524D45" opacity="1.000000" stroke="none" 
	d="
M140.951736,232.769745 
	C140.944946,234.045074 140.622070,235.001389 141.787582,235.965118 
	C141.797806,237.628189 141.138687,238.263779 139.686707,237.425873 
	C138.598541,236.797882 137.872940,235.917130 138.113846,234.631897 
	C138.385162,233.184418 138.634125,231.506470 140.951736,232.769745 
z"/>
<path fill="#8D8C8C" opacity="1.000000" stroke="none" 
	d="
M150.864746,264.554077 
	C150.742874,265.419586 150.453491,265.975159 150.091736,266.836792 
	C149.868225,268.737030 148.812881,268.660431 147.340759,268.172852 
	C147.014786,267.929688 147.063065,267.988678 147.097565,267.973175 
	C148.195557,266.599915 146.828125,262.908356 150.864746,264.554077 
z"/>
<path fill="#524D45" opacity="1.000000" stroke="none" 
	d="
M172.656982,288.712158 
	C172.950241,288.920624 172.995712,289.417908 173.020355,289.665405 
	C173.718643,293.325287 171.681198,293.492065 168.809113,293.192810 
	C166.768188,292.663452 165.116714,292.067108 163.235229,291.227478 
	C163.047195,290.795776 163.089157,290.607300 163.165665,290.131287 
	C165.245605,288.951813 167.684631,289.909943 169.949280,288.371002 
	C171.002289,288.122101 171.698792,288.176392 172.656982,288.712158 
z"/>
<path fill="#141213" opacity="1.000000" stroke="none" 
	d="
M147.088608,268.264099 
	C147.746445,266.926361 148.751297,268.175812 149.778519,267.383270 
	C153.950134,267.668549 157.142975,269.148163 158.087128,273.756683 
	C157.746979,274.371307 157.413742,274.554718 156.734009,274.598938 
	C151.275284,275.802795 149.603897,271.601013 147.088608,268.264099 
z"/>
<path fill="#191718" opacity="1.000000" stroke="none" 
	d="
M160.793564,278.101288 
	C161.615570,280.022827 162.750702,281.432526 161.510544,283.603821 
	C159.087875,282.140350 156.326950,280.987946 156.307449,277.568604 
	C157.953430,276.723083 159.337570,276.790344 160.793564,278.101288 
z"/>
<path fill="#524D45" opacity="1.000000" stroke="none" 
	d="
M161.027893,284.397705 
	C161.035202,283.945557 161.376846,283.930542 161.546112,283.942932 
	C162.354996,283.664307 162.994614,283.373322 163.924896,282.870300 
	C163.375946,284.648773 163.901978,285.847565 166.574844,286.031189 
	C167.736740,289.691040 165.402115,288.841431 162.963898,288.239258 
	C162.021942,287.690826 161.517700,287.382141 160.929932,286.867645 
	C160.904465,286.057861 160.962524,285.453857 161.027893,284.397705 
z"/>
<path fill="#E9E8E8" opacity="1.000000" stroke="none" 
	d="
M161.304932,278.510193 
	C159.711746,278.166473 158.487213,277.820557 156.886963,277.406219 
	C156.412720,276.591675 156.314194,275.845490 156.329742,274.828705 
	C156.783600,274.414246 157.123367,274.270416 157.738770,274.099731 
	C158.815079,275.272308 160.144333,275.567078 161.710480,276.025085 
	C162.048569,276.015076 162.014801,276.007629 162.029297,276.015198 
	C162.187866,276.268921 162.331940,276.515015 162.559509,277.180664 
	C162.319870,277.902802 161.996719,278.205414 161.304932,278.510193 
z"/>
<path fill="#8D8C8C" opacity="1.000000" stroke="none" 
	d="
M162.649567,288.303345 
	C164.007675,287.641968 165.929337,288.949493 166.960999,286.429382 
	C166.976700,286.027588 167.292557,285.838379 167.474640,285.811768 
	C168.048920,286.229340 168.441132,286.673553 169.137878,287.074646 
	C170.154602,287.102325 170.484055,287.494324 170.217270,288.605591 
	C168.206009,290.902771 166.165649,291.187592 163.546387,289.880829 
	C163.057770,289.431549 162.915359,289.019379 162.649567,288.303345 
z"/>
<path fill="#F8F7F7" opacity="1.000000" stroke="none" 
	d="
M104.248093,257.868866 
	C104.120041,257.648560 104.299278,257.389618 104.787132,257.093323 
	C104.922485,257.319397 104.742363,257.577484 104.248093,257.868866 
z"/>
<path fill="#191718" opacity="1.000000" stroke="none" 
	d="
M170.373138,288.990112 
	C169.831589,288.576172 169.658600,288.149353 169.464005,287.377075 
	C170.316132,287.008331 171.189865,286.985138 172.492950,287.039795 
	C172.934128,287.518555 172.945953,287.919434 172.954010,288.620483 
	C172.214066,288.939514 171.477875,288.958374 170.373138,288.990112 
z"/>
<path fill="#A5A4A5" opacity="1.000000" stroke="none" 
	d="
M158.844025,231.816711 
	C160.102905,237.046402 161.089279,242.044296 161.141327,247.620087 
	C158.298538,247.457245 158.298538,247.457245 158.986771,242.403320 
	C157.775986,244.728821 159.366104,247.068588 157.490494,248.814117 
	C156.446243,241.431320 155.792450,234.109039 155.180878,226.330109 
	C156.002701,225.286987 156.782318,224.700546 157.766327,224.002014 
	C158.155609,224.385452 158.340485,224.880966 158.443146,225.772186 
	C157.913712,227.994644 157.633347,229.814453 158.844025,231.816711 
z"/>
<path fill="#E9E8E8" opacity="1.000000" stroke="none" 
	d="
M157.059738,249.281769 
	C158.926880,246.791107 157.182205,244.066666 158.521393,241.976578 
	C159.694534,243.849777 157.523788,246.685867 160.752808,248.053741 
	C162.976700,251.090836 158.264725,249.078613 158.947495,250.856171 
	C158.024582,252.661926 165.293900,252.395981 159.328827,255.010208 
	C158.757065,255.268188 158.514938,255.506989 158.031006,255.852875 
	C156.873825,254.008575 157.008255,251.901382 157.059738,249.281769 
z"/>
<path fill="#636162" opacity="1.000000" stroke="none" 
	d="
M157.845154,256.305176 
	C158.022583,255.696121 158.236877,255.413147 158.714020,255.068573 
	C159.807327,258.668427 160.061996,262.382385 159.864517,266.559265 
	C159.240860,266.798584 158.743301,266.604736 158.099380,266.180725 
	C157.409317,265.382996 157.535980,264.665863 157.502136,263.633240 
	C157.265961,262.379364 156.959000,261.475433 157.638718,260.264526 
	C157.846436,258.856903 157.864227,257.744080 157.845154,256.305176 
z"/>
<path fill="#E9E8E8" opacity="1.000000" stroke="none" 
	d="
M157.371109,259.974182 
	C157.897644,260.783905 157.966614,261.598053 157.966080,262.713776 
	C157.649918,263.171204 157.403259,263.327118 156.760681,263.296448 
	C156.216049,262.283905 156.067352,261.457977 155.958664,260.316162 
	C156.303635,259.993011 156.608597,259.985809 157.371109,259.974182 
z"/>
<path fill="#E9E8E8" opacity="1.000000" stroke="none" 
	d="
M149.053146,248.101181 
	C149.769028,248.077011 150.463898,248.102692 150.587891,248.922424 
	C150.618652,249.125854 150.287094,249.384079 150.122070,249.617126 
	C149.777771,249.358521 149.433502,249.099930 149.104080,248.572342 
	C149.118927,248.303345 148.984680,248.167664 149.053146,248.101181 
z"/>
<path fill="#E9E8E8" opacity="1.000000" stroke="none" 
	d="
M150.199341,251.987579 
	C149.930115,252.009964 149.472809,252.022034 149.244202,252.025558 
	C149.597626,251.230637 150.220352,250.597519 151.218002,251.486633 
	C150.968185,251.646149 150.718369,251.805664 150.199341,251.987579 
z"/>
<path fill="#E9E8E8" opacity="1.000000" stroke="none" 
	d="
M142.929794,247.805908 
	C142.286072,247.904495 142.027405,247.477982 142.630219,246.756439 
	C142.928909,246.948013 142.936050,247.193146 142.929794,247.805908 
z"/>
<path fill="#E9E8E8" opacity="1.000000" stroke="none" 
	d="
M167.995178,258.652283 
	C164.883163,259.463745 166.229980,261.940155 166.029373,263.643158 
	C165.820007,265.420288 165.923813,267.234344 165.873138,269.483765 
	C165.569626,270.004303 165.283676,270.073334 164.707581,269.810120 
	C163.661896,266.587982 163.850510,263.708405 164.513275,260.398926 
	C164.486832,255.639099 164.576004,251.313934 164.281738,246.599899 
	C164.383499,244.176926 162.962860,241.816696 165.637482,240.086960 
	C168.653458,240.433884 168.087036,242.604050 168.372940,244.769928 
	C167.834702,248.520203 168.284729,251.906631 167.218781,255.571075 
	C167.329575,256.759186 167.653687,257.545441 167.995178,258.652283 
z"/>
<path fill="#DFDEDF" opacity="1.000000" stroke="none" 
	d="
M167.327271,245.415405 
	C166.938095,243.641998 166.758163,242.089890 166.300095,240.272491 
	C164.574387,237.011917 164.233490,234.350510 168.517914,232.955780 
	C170.911133,233.667786 171.674561,235.243362 171.454453,237.219574 
	C171.073547,240.639313 171.293365,244.114426 170.166183,247.788528 
	C169.840805,248.084946 169.518082,248.078979 169.356750,248.074188 
	C168.004868,247.693283 168.160645,246.399078 167.327271,245.415405 
z"/>
<path fill="#BABABA" opacity="1.000000" stroke="none" 
	d="
M169.887909,248.496857 
	C170.294647,244.887634 169.541046,241.590302 170.911591,238.444519 
	C171.765213,236.485199 169.924911,235.193146 169.002533,233.305145 
	C169.039612,231.887817 168.478485,230.301804 170.246750,230.288773 
	C172.246414,230.274048 171.929810,232.021652 171.937469,233.253967 
	C171.983978,240.720032 171.960648,248.186523 171.960648,255.944656 
	C169.527649,253.876419 170.134033,251.279114 169.887909,248.496857 
z"/>
<path fill="#A5A4A5" opacity="1.000000" stroke="none" 
	d="
M167.131149,245.634308 
	C168.862930,244.941635 168.906891,246.199615 169.122681,247.719513 
	C169.048340,250.670700 169.161652,253.323669 167.347000,255.817352 
	C167.051727,252.673447 167.098007,249.373962 167.131149,245.634308 
z"/>
<path fill="#8D8C8C" opacity="1.000000" stroke="none" 
	d="
M164.664398,259.784729 
	C164.932770,263.057495 165.035385,266.055969 165.175385,269.502686 
	C165.298996,271.022430 164.664551,271.355011 163.419464,271.131042 
	C163.023438,269.412872 162.946579,267.952423 162.868225,266.052612 
	C163.781021,265.303955 163.240082,264.673523 163.156403,263.838440 
	C163.162292,263.101532 163.282837,262.702057 163.671875,262.070862 
	C163.916428,261.420380 163.973358,261.025909 164.087006,260.337830 
	C164.262039,259.866272 164.380325,259.688354 164.664398,259.784729 
z"/>
<path fill="#A5A4A5" opacity="1.000000" stroke="none" 
	d="
M164.889420,259.594391 
	C164.830154,260.059021 164.487106,260.034119 164.315430,260.039154 
	C164.129486,255.729248 164.115219,251.414322 164.098633,246.654846 
	C166.168716,250.398804 164.392700,254.841202 164.889420,259.594391 
z"/>
<path fill="#8D8C8C" opacity="1.000000" stroke="none" 
	d="
M159.135834,231.622299 
	C155.632156,230.873810 157.060394,228.537567 158.059540,226.271088 
	C158.630524,227.843323 158.900101,229.518738 159.135834,231.622299 
z"/>
<path fill="#BABABA" opacity="1.000000" stroke="none" 
	d="
M163.610413,261.655151 
	C163.862503,262.363342 163.865494,262.911865 163.801575,263.866272 
	C163.558472,264.581665 163.424408,264.908722 163.114639,265.414337 
	C161.852036,263.792236 161.314484,261.888153 161.672485,259.493927 
	C161.769073,258.992157 161.765030,258.797333 162.046753,258.664001 
	C162.675446,259.648834 163.018372,260.572174 163.610413,261.655151 
z"/>
<path fill="#D3D2D3" opacity="1.000000" stroke="none" 
	d="
M163.091156,271.227478 
	C163.673111,270.729248 164.245941,270.585205 165.015747,270.196045 
	C165.212753,269.950958 165.535416,269.954895 165.695496,269.945068 
	C165.795319,270.796509 165.735062,271.657776 165.442871,272.742615 
	C164.202042,272.964783 163.304977,272.791443 163.091156,271.227478 
z"/>
<path fill="#DFDEDF" opacity="1.000000" stroke="none" 
	d="
M165.707458,228.396484 
	C166.682465,228.262756 167.423508,228.317001 168.164536,228.371262 
	C167.562637,229.050156 167.054916,230.122543 166.331940,230.295578 
	C165.631241,230.463287 165.116333,229.508987 165.707458,228.396484 
z"/>
<path fill="#BABABA" opacity="1.000000" stroke="none" 
	d="
M161.912170,259.070618 
	C161.196457,258.412415 160.651184,257.633759 161.445267,256.679932 
	C161.688019,257.173035 161.930771,257.666107 162.253021,258.442352 
	C162.332504,258.725494 162.051208,258.954285 161.912170,259.070618 
z"/>
<path fill="#E9E8E8" opacity="1.000000" stroke="none" 
	d="
M162.895737,265.585266 
	C163.043030,265.250092 163.182846,264.922211 163.528671,264.433289 
	C163.613159,264.727875 163.491653,265.183533 163.118469,265.626221 
	C162.866760,265.613251 162.888275,265.592560 162.895737,265.585266 
z"/>
<path fill="#D3D2D3" opacity="1.000000" stroke="none" 
	d="
M162.684906,277.553772 
	C162.493927,277.355927 162.344818,277.111664 162.119751,276.445129 
	C162.331223,276.283417 162.618668,276.544037 162.869507,277.122986 
	C162.832886,277.441315 162.726776,277.507385 162.684906,277.553772 
z"/>
<path fill="#F8F7F7" opacity="1.000000" stroke="none" 
	d="
M156.377167,263.466949 
	C156.619843,263.090576 156.874939,263.071381 157.513290,263.033752 
	C157.959778,263.750610 158.022980,264.485870 158.019623,265.585876 
	C157.953033,265.950592 157.528122,265.928894 157.320862,265.881165 
	C156.872269,265.163635 156.630920,264.493866 156.377167,263.466949 
z"/>
</svg>